<svg width="150" height="150" viewBox="0 0 150 150" fill="none" xmlns="http://www.w3.org/2000/svg">
<path d="M75 137.5C109.518 137.5 137.5 109.518 137.5 75C137.5 40.4822 109.518 12.5 75 12.5C40.4822 12.5 12.5 40.4822 12.5 75C12.5 109.518 40.4822 137.5 75 137.5Z" stroke="white" stroke-width="2" stroke-linecap="round" stroke-linejoin="round"/>
<path d="M93.0557 42.46H59.3255C50.0112 42.46 42.4604 50.0107 42.4604 59.325V93.0552C42.4604 102.37 50.0112 109.92 59.3255 109.92H93.0557C102.37 109.92 109.921 102.37 109.921 93.0552V59.325C109.921 50.0107 102.37 42.46 93.0557 42.46Z" stroke="white" stroke-width="5" stroke-linecap="round" stroke-linejoin="round"/>
<path d="M89.6827 74.0648C90.099 76.872 89.6195 79.7389 88.3124 82.2579C87.0054 84.7768 84.9373 86.8195 82.4025 88.0954C79.8676 89.3713 76.9949 89.8154 74.1931 89.3645C71.3912 88.9137 68.8029 87.5908 66.7962 85.5842C64.7896 83.5775 63.4667 80.9892 63.0159 78.1873C62.565 75.3855 63.0091 72.5128 64.285 69.9779C65.5609 67.443 67.6036 65.375 70.1225 64.068C72.6415 62.7609 75.5084 62.2814 78.3156 62.6977C81.1791 63.1223 83.83 64.4566 85.8769 66.5035C87.9238 68.5504 89.2581 71.2013 89.6827 74.0648Z" stroke="white" stroke-width="5" stroke-linecap="round" stroke-linejoin="round"/>
<path d="M94.7422 57.6387H94.7759" stroke="white" stroke-width="5" stroke-linecap="round" stroke-linejoin="round"/>
</svg>
